# Blender v2.76 (sub 0) OBJ File: ''
# www.blender.org
o Cube
v -1.000000 1.000000 -1.000000
v -1.000000 1.000000 1.000000
v 1.000000 1.000000 1.000000
v 1.000000 1.000000 -1.000000
v -1.000000 -1.000000 -1.000000
v -1.000000 -1.000000 1.000000
v 1.000000 -1.000000 1.000000
v 1.000000 -1.000000 -1.000000
vt 0.500000 0.500000
vt 0.500000 0.250044
vt 0.749957 0.250044
vt 0.250043 0.250043
vt 0.250044 0.000087
vt 0.500000 0.000087
vt 0.000087 0.500000
vt 0.000087 0.250043
vt 0.500000 0.749957
vt 0.250043 0.749957
vt 0.250043 0.500000
vt 0.999913 0.250044
vt 0.999913 0.500000
vt 0.749957 0.500000
vn 0.000000 0.000000 -1.000000
vn -1.000000 -0.000000 -0.000000
vn -0.000000 0.000000 1.000000
vn 1.000000 0.000000 0.000000
vn 0.000000 1.000000 0.000000
vn 0.000000 -1.000000 0.000000
s off
f 8/1/1 5/2/1 1/3/1
f 6/4/2 2/5/2 1/6/2
f 3/7/3 2/8/3 6/4/3
f 4/9/4 3/10/4 7/11/4
f 1/3/5 2/12/5 3/13/5
f 7/11/6 6/4/6 5/2/6
f 4/14/1 8/1/1 1/3/1
f 5/2/2 6/4/2 1/6/2
f 7/11/3 3/7/3 6/4/3
f 8/1/4 4/9/4 7/11/4
f 4/14/5 1/3/5 3/13/5
f 8/1/6 7/11/6 5/2/6
